<svg width="62" height="43" viewBox="0 0 62 43" fill="none" xmlns="http://www.w3.org/2000/svg">
<path d="M32.8432 19.582C32.8432 18.4774 31.9444 17.5786 30.8398 17.5786C28.1858 17.6794 28.1865 21.4849 30.8398 21.5852C31.9444 21.5852 32.8432 20.6866 32.8432 19.582Z" fill="#31C48D" stroke="#31C48D" stroke-width="0.882174"/>
<path d="M48.0455 12.3507C41.7389 -2.78695 19.9363 -2.78016 13.634 12.3507C-4.43923 15.4882 -2.59886 41.4972 15.8116 42C15.8114 42 21.5718 42 21.5718 42V35.3368L18.2642 32.0292C14.6976 33.8731 10.2466 31.1297 10.3005 27.0961C10.3005 24.0574 12.7727 21.5852 15.8114 21.5852C19.8445 21.5317 22.5887 25.9823 20.7444 29.5489L24.5657 33.3703C24.8947 33.6991 25.0795 34.1453 25.0795 34.6104V41.9999H29.0861V24.8051C23.2535 22.7468 24.5795 14.194 30.84 14.0711C37.1015 14.1945 38.4255 22.748 32.5938 24.8051V42H36.6003V34.6105C36.6003 34.1453 36.7851 33.6992 37.1141 33.3704L40.9355 29.549C39.0916 25.9824 41.835 21.5314 45.8686 21.5853C48.9073 21.5853 51.3795 24.0575 51.3795 27.0962C51.433 31.1294 46.9824 33.8735 43.4158 32.0292L40.1081 35.3368V41.9999H45.8686C64.2829 41.4966 66.1136 15.4843 48.0455 12.3507Z" fill="#31C48D" stroke="#31C48D" stroke-width="0.882174"/>
<path d="M47.8716 27.0962C47.8716 25.9917 46.9728 25.0929 45.8682 25.0929C43.2144 25.1936 43.215 28.9991 45.8682 29.0995C46.9728 29.0995 47.8716 28.2008 47.8716 27.0962Z" fill="#31C48D" stroke="#31C48D" stroke-width="0.882174"/>
<path d="M13.8081 27.0962C13.8081 28.2008 14.7069 29.0995 15.8114 29.0995C18.4653 28.9988 18.4645 25.1932 15.8114 25.0929C14.7067 25.0929 13.8081 25.9917 13.8081 27.0962Z" fill="#31C48D" stroke="#31C48D" stroke-width="0.882174"/>
</svg>
